G04*
G04 #@! TF.GenerationSoftware,Altium Limited,Altium Designer,23.9.2 (47)*
G04*
G04 Layer_Color=16711935*
%FSLAX25Y25*%
%MOIN*%
G70*
G04*
G04 #@! TF.SameCoordinates,96E2FA6D-A4E1-418B-AB96-812044D57736*
G04*
G04*
G04 #@! TF.FilePolarity,Negative*
G04*
G01*
G75*
%ADD18C,0.06937*%
%ADD19R,0.06937X0.06937*%
%ADD20R,0.09858X0.09858*%
%ADD21C,0.09858*%
%ADD22O,0.10843X0.20685*%
%ADD23O,0.09858X0.18717*%
%ADD24O,0.18717X0.09858*%
%ADD25C,0.13402*%
%ADD26C,0.06504*%
%ADD27C,0.05953*%
%ADD28R,0.05724X0.05724*%
%ADD29C,0.05724*%
%ADD30C,0.07000*%
%ADD31R,0.07000X0.07000*%
%ADD32O,0.08874X0.04937*%
%ADD33R,0.06937X0.06937*%
%ADD34C,0.06937*%
%ADD35R,0.08874X0.08874*%
%ADD36C,0.08874*%
%ADD37R,0.06898X0.06898*%
%ADD38C,0.06898*%
%ADD39R,0.08677X0.08677*%
%ADD40C,0.08677*%
%ADD41R,0.06110X0.06110*%
%ADD42C,0.06110*%
%ADD43C,0.07339*%
%ADD44R,0.07339X0.07339*%
%ADD45R,0.06543X0.06543*%
%ADD46C,0.06543*%
%ADD47O,0.11400X0.06200*%
%ADD48O,0.05173X0.09347*%
%ADD49C,0.04937*%
%ADD50C,0.02500*%
%ADD90R,0.06906X0.04543*%
%ADD91R,0.06906X0.04150*%
%ADD92R,0.06906X0.03756*%
D18*
X330000Y214000D02*
D03*
Y244000D02*
D03*
Y234000D02*
D03*
D19*
Y224000D02*
D03*
D20*
X227645Y78847D02*
D03*
D21*
X216334Y59256D02*
D03*
X196744Y47946D02*
D03*
X174123D02*
D03*
X154532Y59256D02*
D03*
X196151Y79440D02*
D03*
X143221Y78847D02*
D03*
Y101468D02*
D03*
X154532Y121059D02*
D03*
X174123Y132369D02*
D03*
X196744D02*
D03*
X216334Y121059D02*
D03*
X174715Y100875D02*
D03*
X227645Y101468D02*
D03*
D22*
X300394Y111417D02*
D03*
D23*
X324016D02*
D03*
D24*
X312205Y92913D02*
D03*
D25*
X281791Y114961D02*
D03*
X65256D02*
D03*
D26*
X147933Y237008D02*
D03*
X97933D02*
D03*
D27*
X277559Y220472D02*
D03*
Y192913D02*
D03*
X246063Y220472D02*
D03*
Y192913D02*
D03*
X261811D02*
D03*
Y220472D02*
D03*
X267717Y320866D02*
D03*
Y293307D02*
D03*
X100394Y320866D02*
D03*
Y293307D02*
D03*
D28*
X35842Y228000D02*
D03*
D29*
X16158D02*
D03*
D30*
X64646Y251969D02*
D03*
X74646D02*
D03*
X195669Y303150D02*
D03*
X172047D02*
D03*
X195669Y311024D02*
D03*
X187795D02*
D03*
X179921D02*
D03*
X187795Y303150D02*
D03*
X179921D02*
D03*
X172047Y311024D02*
D03*
X327000Y21000D02*
D03*
X24000Y24000D02*
D03*
X332000Y336000D02*
D03*
X24000Y325000D02*
D03*
D31*
X84646Y251969D02*
D03*
D32*
X344094Y45118D02*
D03*
Y79134D02*
D03*
X329134Y45118D02*
D03*
Y79134D02*
D03*
D33*
X88000Y335000D02*
D03*
D34*
X108000D02*
D03*
X118000D02*
D03*
X128000D02*
D03*
X138000D02*
D03*
X148000D02*
D03*
X158000D02*
D03*
X168000D02*
D03*
X178000D02*
D03*
X188000D02*
D03*
X198000D02*
D03*
X208000D02*
D03*
X218000D02*
D03*
X228000D02*
D03*
X238000D02*
D03*
X248000D02*
D03*
X258000D02*
D03*
X268000D02*
D03*
X278000D02*
D03*
Y275000D02*
D03*
X268000D02*
D03*
X258000D02*
D03*
X248000D02*
D03*
X238000D02*
D03*
X228000D02*
D03*
X218000D02*
D03*
X208000D02*
D03*
X198000D02*
D03*
X188000D02*
D03*
X178000D02*
D03*
X168000D02*
D03*
X158000D02*
D03*
X148000D02*
D03*
X138000D02*
D03*
X128000D02*
D03*
X118000D02*
D03*
X108000D02*
D03*
X98000D02*
D03*
X88000D02*
D03*
X98000Y335000D02*
D03*
D35*
X71653Y64961D02*
D03*
D36*
X101575D02*
D03*
D37*
X34449Y89567D02*
D03*
D38*
Y63976D02*
D03*
X16732Y89567D02*
D03*
Y63976D02*
D03*
D39*
X35433Y178150D02*
D03*
D40*
Y128937D02*
D03*
X15748Y178150D02*
D03*
Y128937D02*
D03*
D41*
X240827Y315118D02*
D03*
X124016Y296929D02*
D03*
D42*
X240827Y305118D02*
D03*
Y295118D02*
D03*
X124016Y306929D02*
D03*
Y316929D02*
D03*
D43*
X295276Y301181D02*
D03*
D44*
Y311181D02*
D03*
D45*
X40000Y289000D02*
D03*
D46*
X30158D02*
D03*
X20315D02*
D03*
D47*
X336614Y265748D02*
D03*
Y285433D02*
D03*
Y275590D02*
D03*
D48*
X253937Y165354D02*
D03*
X258858D02*
D03*
X263779D02*
D03*
X268701D02*
D03*
D49*
X310925Y198130D02*
D03*
X302067Y330709D02*
D03*
X221752Y318504D02*
D03*
X142028Y324902D02*
D03*
X145768Y252953D02*
D03*
X110630Y252658D02*
D03*
X8760Y201181D02*
D03*
X32185Y42323D02*
D03*
X159350Y100295D02*
D03*
X189370Y74508D02*
D03*
X313341Y45487D02*
D03*
X314711Y79952D02*
D03*
X259449Y116142D02*
D03*
D50*
X170408Y114567D02*
D03*
X186221Y106693D02*
D03*
X184252Y96850D02*
D03*
X172441Y85039D02*
D03*
X70866Y309055D02*
D03*
X255906Y253937D02*
D03*
X261811Y248031D02*
D03*
X277559D02*
D03*
X188976Y324803D02*
D03*
D90*
X328425Y72953D02*
D03*
Y51299D02*
D03*
D91*
Y56142D02*
D03*
Y68110D02*
D03*
D92*
Y64095D02*
D03*
Y60158D02*
D03*
M02*
