G04*
G04 #@! TF.GenerationSoftware,Altium Limited,Altium Designer,24.0.1 (36)*
G04*
G04 Layer_Color=16711935*
%FSLAX25Y25*%
%MOIN*%
G70*
G04*
G04 #@! TF.SameCoordinates,33EB6A70-A770-4DF6-8785-8125C03B2395*
G04*
G04*
G04 #@! TF.FilePolarity,Positive*
G04*
G01*
G75*
%ADD10C,0.00500*%
%ADD11C,0.00787*%
%ADD12C,0.01575*%
%ADD14C,0.01000*%
D10*
X237008Y90158D02*
G03*
X237008Y90158I-51575J0D01*
G01*
X41748Y228000D02*
G03*
X41748Y228000I-15748J0D01*
G01*
X110236Y64961D02*
G03*
X110236Y64961I-23622J0D01*
G01*
X32480Y76772D02*
G03*
X32480Y76772I-6890J0D01*
G01*
X250003Y305042D02*
G03*
X235897Y314202I-10260J-358D01*
G01*
Y296034D02*
G03*
X250003Y305194I3846J9518D01*
G01*
X114840Y307005D02*
G03*
X128945Y297845I10260J358D01*
G01*
Y316013D02*
G03*
X114840Y306853I-3846J-9518D01*
G01*
X307008Y306181D02*
G03*
X307008Y306181I-11732J0D01*
G01*
X272736Y165354D02*
G03*
X272736Y165354I-11417J0D01*
G01*
X297638Y93701D02*
X354331D01*
Y129134D01*
X297638D02*
X354331D01*
X297638Y93701D02*
Y129134D01*
X294587Y1378D02*
Y228543D01*
X51279D02*
X294587D01*
X51279Y1378D02*
Y228543D01*
Y1378D02*
X294587D01*
X281201Y199803D02*
Y213583D01*
X277559Y199803D02*
X281201D01*
X273917D02*
X277559D01*
X273917D02*
Y213583D01*
X277559D01*
X281201D01*
X277559D02*
Y218209D01*
Y195177D02*
Y199803D01*
X249705D02*
Y213583D01*
X246063Y199803D02*
X249705D01*
X242421D02*
X246063D01*
X242421D02*
Y213583D01*
X246063D01*
X249705D01*
X246063D02*
Y218209D01*
Y195177D02*
Y199803D01*
X327165Y44528D02*
Y79724D01*
Y44528D02*
X354331D01*
Y79724D01*
X327165D02*
X354331D01*
X69535Y260000D02*
Y350000D01*
Y260000D02*
X78000D01*
X288000D01*
Y350000D01*
X78000D02*
X288000D01*
X69535D02*
X78000D01*
Y260000D02*
Y350000D01*
X50315Y64961D02*
X58189D01*
X54252Y61024D02*
Y68898D01*
X113858Y64961D02*
X121732D01*
X13799Y88563D02*
X37382D01*
X13799Y64980D02*
Y88563D01*
Y64980D02*
X37382D01*
Y88563D01*
X1969Y129921D02*
X49213D01*
Y177165D01*
X1969D02*
X49213D01*
X1969Y129921D02*
Y177165D01*
X261811Y195177D02*
Y199803D01*
Y213583D02*
Y218209D01*
Y213583D02*
X265453D01*
X258169D02*
X261811D01*
X258169Y199803D02*
Y213583D01*
Y199803D02*
X261811D01*
X265453D01*
Y213583D01*
X235827Y296063D02*
Y314173D01*
X129016Y297874D02*
Y315984D01*
X267717Y313976D02*
Y318602D01*
Y295571D02*
Y300197D01*
X264075D02*
X267717D01*
X271358D01*
Y313976D01*
X267717D02*
X271358D01*
X264075D02*
X267717D01*
X264075Y300197D02*
Y313976D01*
X100394D02*
Y318602D01*
Y295571D02*
Y300197D01*
X96752D02*
X100394D01*
X104035D01*
Y313976D01*
X100394D02*
X104035D01*
X96752D02*
X100394D01*
X96752Y300197D02*
Y313976D01*
X55748Y276992D02*
Y301008D01*
X4567Y276992D02*
X55748D01*
X4567D02*
Y301008D01*
X55748D01*
D11*
X237795Y78740D02*
G03*
X237795Y78740I-394J0D01*
G01*
X45094Y228000D02*
G03*
X45094Y228000I-394J0D01*
G01*
X88394Y352244D02*
G03*
X88394Y352244I-394J0D01*
G01*
X35827Y185236D02*
G03*
X35827Y185236I-394J0D01*
G01*
X241220Y321610D02*
G03*
X241220Y321610I-394J0D01*
G01*
X124409Y290437D02*
G03*
X124409Y290437I-394J0D01*
G01*
X276713Y170354D02*
G03*
X276713Y170354I-394J0D01*
G01*
D12*
X35236Y89567D02*
G03*
X35236Y89567I-787J0D01*
G01*
D14*
X156570Y247480D02*
Y252146D01*
X93794Y244980D02*
Y249645D01*
X96127Y247313D02*
X91462D01*
M02*
