G04*
G04 #@! TF.GenerationSoftware,Altium Limited,Altium Designer,23.9.2 (47)*
G04*
G04 Layer_Color=255*
%FSLAX25Y25*%
%MOIN*%
G70*
G04*
G04 #@! TF.SameCoordinates,96E2FA6D-A4E1-418B-AB96-812044D57736*
G04*
G04*
G04 #@! TF.FilePolarity,Positive*
G04*
G01*
G75*
%ADD54C,0.05937*%
%ADD55R,0.05937X0.05937*%
%ADD56R,0.08858X0.08858*%
%ADD57C,0.08858*%
%ADD58O,0.09843X0.19685*%
%ADD59O,0.08858X0.17717*%
%ADD60O,0.17717X0.08858*%
%ADD61C,0.12402*%
%ADD62C,0.05504*%
%ADD63C,0.04953*%
%ADD64R,0.04724X0.04724*%
%ADD65C,0.04724*%
%ADD66C,0.06000*%
%ADD67R,0.06000X0.06000*%
%ADD68O,0.07874X0.03937*%
%ADD69R,0.05937X0.05937*%
%ADD70C,0.05937*%
%ADD71R,0.07874X0.07874*%
%ADD72C,0.07874*%
%ADD73R,0.05898X0.05898*%
%ADD74C,0.05898*%
%ADD75R,0.07677X0.07677*%
%ADD76C,0.07677*%
%ADD77R,0.05110X0.05110*%
%ADD78C,0.05110*%
%ADD79C,0.06339*%
%ADD80R,0.06339X0.06339*%
%ADD81R,0.05543X0.05543*%
%ADD82C,0.05543*%
%ADD83O,0.10400X0.05200*%
%ADD84O,0.04173X0.08346*%
%ADD87R,0.05906X0.03543*%
%ADD88R,0.05906X0.03150*%
%ADD89R,0.05906X0.02756*%
D54*
X330000Y214000D02*
D03*
Y244000D02*
D03*
Y234000D02*
D03*
D55*
Y224000D02*
D03*
D56*
X227645Y78847D02*
D03*
D57*
X216334Y59256D02*
D03*
X196744Y47946D02*
D03*
X174123D02*
D03*
X154532Y59256D02*
D03*
X196151Y79440D02*
D03*
X143221Y78847D02*
D03*
Y101468D02*
D03*
X154532Y121059D02*
D03*
X174123Y132369D02*
D03*
X196744D02*
D03*
X216334Y121059D02*
D03*
X174715Y100875D02*
D03*
X227645Y101468D02*
D03*
D58*
X300394Y111417D02*
D03*
D59*
X324016D02*
D03*
D60*
X312205Y92913D02*
D03*
D61*
X281791Y114961D02*
D03*
X65256D02*
D03*
D62*
X147933Y237008D02*
D03*
X97933D02*
D03*
D63*
X277559Y220472D02*
D03*
Y192913D02*
D03*
X246063Y220472D02*
D03*
Y192913D02*
D03*
X261811D02*
D03*
Y220472D02*
D03*
X267717Y320866D02*
D03*
Y293307D02*
D03*
X100394Y320866D02*
D03*
Y293307D02*
D03*
D64*
X35842Y228000D02*
D03*
D65*
X16158D02*
D03*
D66*
X64646Y251969D02*
D03*
X74646D02*
D03*
X195669Y303150D02*
D03*
X172047D02*
D03*
X195669Y311024D02*
D03*
X187795D02*
D03*
X179921D02*
D03*
X187795Y303150D02*
D03*
X179921D02*
D03*
X172047Y311024D02*
D03*
X327000Y21000D02*
D03*
X24000Y24000D02*
D03*
X332000Y336000D02*
D03*
X24000Y325000D02*
D03*
D67*
X84646Y251969D02*
D03*
D68*
X344094Y45118D02*
D03*
Y79134D02*
D03*
X329134Y45118D02*
D03*
Y79134D02*
D03*
D69*
X88000Y335000D02*
D03*
D70*
X108000D02*
D03*
X118000D02*
D03*
X128000D02*
D03*
X138000D02*
D03*
X148000D02*
D03*
X158000D02*
D03*
X168000D02*
D03*
X178000D02*
D03*
X188000D02*
D03*
X198000D02*
D03*
X208000D02*
D03*
X218000D02*
D03*
X228000D02*
D03*
X238000D02*
D03*
X248000D02*
D03*
X258000D02*
D03*
X268000D02*
D03*
X278000D02*
D03*
Y275000D02*
D03*
X268000D02*
D03*
X258000D02*
D03*
X248000D02*
D03*
X238000D02*
D03*
X228000D02*
D03*
X218000D02*
D03*
X208000D02*
D03*
X198000D02*
D03*
X188000D02*
D03*
X178000D02*
D03*
X168000D02*
D03*
X158000D02*
D03*
X148000D02*
D03*
X138000D02*
D03*
X128000D02*
D03*
X118000D02*
D03*
X108000D02*
D03*
X98000D02*
D03*
X88000D02*
D03*
X98000Y335000D02*
D03*
D71*
X71653Y64961D02*
D03*
D72*
X101575D02*
D03*
D73*
X34449Y89567D02*
D03*
D74*
Y63976D02*
D03*
X16732Y89567D02*
D03*
Y63976D02*
D03*
D75*
X35433Y178150D02*
D03*
D76*
Y128937D02*
D03*
X15748Y178150D02*
D03*
Y128937D02*
D03*
D77*
X240827Y315118D02*
D03*
X124016Y296929D02*
D03*
D78*
X240827Y305118D02*
D03*
Y295118D02*
D03*
X124016Y306929D02*
D03*
Y316929D02*
D03*
D79*
X295276Y301181D02*
D03*
D80*
Y311181D02*
D03*
D81*
X40000Y289000D02*
D03*
D82*
X30158D02*
D03*
X20315D02*
D03*
D83*
X336614Y265748D02*
D03*
Y285433D02*
D03*
Y275590D02*
D03*
D84*
X253937Y165354D02*
D03*
X258858D02*
D03*
X263779D02*
D03*
X268701D02*
D03*
D87*
X328425Y72953D02*
D03*
Y51299D02*
D03*
D88*
Y56142D02*
D03*
Y68110D02*
D03*
D89*
Y64095D02*
D03*
Y60158D02*
D03*
M02*
