G04*
G04 #@! TF.GenerationSoftware,Altium Limited,Altium Designer,24.0.1 (36)*
G04*
G04 Layer_Color=128*
%FSLAX25Y25*%
%MOIN*%
G70*
G04*
G04 #@! TF.SameCoordinates,33EB6A70-A770-4DF6-8785-8125C03B2395*
G04*
G04*
G04 #@! TF.FilePolarity,Positive*
G04*
G01*
G75*
%ADD10C,0.00500*%
D10*
X328500Y214000D02*
X331500D01*
X330000Y212500D02*
Y215500D01*
X328500Y244000D02*
X331500D01*
X330000Y242500D02*
Y245500D01*
X328500Y234000D02*
X331500D01*
X330000Y232500D02*
Y235500D01*
X328500Y224000D02*
X331500D01*
X330000Y222500D02*
Y225500D01*
X224692Y78847D02*
X230598D01*
X227645Y75894D02*
Y81800D01*
X213381Y59256D02*
X219287D01*
X216334Y56304D02*
Y62209D01*
X193791Y47946D02*
X199696D01*
X196744Y44993D02*
Y50898D01*
X171170Y47946D02*
X177075D01*
X174123Y44993D02*
Y50898D01*
X151579Y59256D02*
X157485D01*
X154532Y56304D02*
Y62209D01*
X193198Y79440D02*
X199104D01*
X196151Y76487D02*
Y82392D01*
X140269Y78847D02*
X146174D01*
X143221Y75894D02*
Y81800D01*
X140269Y101468D02*
X146174D01*
X143221Y98515D02*
Y104421D01*
X151579Y121059D02*
X157485D01*
X154532Y118106D02*
Y124011D01*
X171170Y132369D02*
X177075D01*
X174123Y129417D02*
Y135322D01*
X193791Y132369D02*
X199696D01*
X196744Y129417D02*
Y135322D01*
X213381Y121059D02*
X219287D01*
X216334Y118106D02*
Y124011D01*
X171762Y100875D02*
X177668D01*
X174715Y97923D02*
Y103828D01*
X224692Y101468D02*
X230598D01*
X227645Y98515D02*
Y104421D01*
X298425Y111417D02*
X302362D01*
X300394Y109449D02*
Y113386D01*
X322047Y111417D02*
X325984D01*
X324016Y109449D02*
Y113386D01*
X310236Y92913D02*
X314173D01*
X312205Y90945D02*
Y94882D01*
X275591Y114961D02*
X287992D01*
X281791Y108760D02*
Y121161D01*
X146181Y237008D02*
X149685D01*
X147933Y235256D02*
Y238760D01*
X96181Y237008D02*
X99685D01*
X97933Y235256D02*
Y238760D01*
X59055Y114961D02*
X71457D01*
X65256Y108760D02*
Y121161D01*
X276083Y220472D02*
X279035D01*
X277559Y218996D02*
Y221949D01*
X276083Y192913D02*
X279035D01*
X277559Y191437D02*
Y194390D01*
X244587Y220472D02*
X247539D01*
X246063Y218996D02*
Y221949D01*
X244587Y192913D02*
X247539D01*
X246063Y191437D02*
Y194390D01*
X34169Y228000D02*
X37516D01*
X35842Y226327D02*
Y229673D01*
X14484Y228000D02*
X17831D01*
X16158Y226327D02*
Y229673D01*
X63146Y251969D02*
X66146D01*
X64646Y250468D02*
Y253468D01*
X73146Y251969D02*
X76146D01*
X74646Y250468D02*
Y253468D01*
X83146Y251969D02*
X86146D01*
X84646Y250468D02*
Y253468D01*
X343110Y45118D02*
X345079D01*
X344094Y44134D02*
Y46102D01*
X343110Y79134D02*
X345079D01*
X344094Y78150D02*
Y80118D01*
X328150Y45118D02*
X330118D01*
X329134Y44134D02*
Y46102D01*
X328150Y79134D02*
X330118D01*
X329134Y78150D02*
Y80118D01*
X194169Y303150D02*
X197169D01*
X195669Y301650D02*
Y304650D01*
X170547Y303150D02*
X173547D01*
X172047Y301650D02*
Y304650D01*
X194169Y311024D02*
X197169D01*
X195669Y309524D02*
Y312524D01*
X186295Y311024D02*
X189295D01*
X187795Y309524D02*
Y312524D01*
X178421Y311024D02*
X181421D01*
X179921Y309524D02*
Y312524D01*
X186295Y303150D02*
X189295D01*
X187795Y301650D02*
Y304650D01*
X178421Y303150D02*
X181421D01*
X179921Y301650D02*
Y304650D01*
X170547Y311024D02*
X173547D01*
X172047Y309524D02*
Y312524D01*
X86032Y335000D02*
X89969D01*
X88000Y333032D02*
Y336968D01*
X106032Y335000D02*
X109968D01*
X108000Y333032D02*
Y336968D01*
X116032Y335000D02*
X119968D01*
X118000Y333032D02*
Y336968D01*
X126031Y335000D02*
X129969D01*
X128000Y333032D02*
Y336968D01*
X136031Y335000D02*
X139969D01*
X138000Y333032D02*
Y336968D01*
X146031Y335000D02*
X149969D01*
X148000Y333032D02*
Y336968D01*
X156032Y335000D02*
X159968D01*
X158000Y333032D02*
Y336968D01*
X166032Y335000D02*
X169968D01*
X168000Y333032D02*
Y336968D01*
X176031Y335000D02*
X179969D01*
X178000Y333032D02*
Y336968D01*
X186031Y335000D02*
X189969D01*
X188000Y333032D02*
Y336968D01*
X196031Y335000D02*
X199969D01*
X198000Y333032D02*
Y336968D01*
X206031Y335000D02*
X209968D01*
X208000Y333032D02*
Y336968D01*
X216032Y335000D02*
X219969D01*
X218000Y333032D02*
Y336968D01*
X226031Y335000D02*
X229969D01*
X228000Y333032D02*
Y336968D01*
X236032Y335000D02*
X239968D01*
X238000Y333032D02*
Y336968D01*
X246031Y335000D02*
X249969D01*
X248000Y333032D02*
Y336968D01*
X256031Y335000D02*
X259968D01*
X258000Y333032D02*
Y336968D01*
X266032Y335000D02*
X269969D01*
X268000Y333032D02*
Y336968D01*
X276031Y335000D02*
X279969D01*
X278000Y333032D02*
Y336968D01*
X276031Y275000D02*
X279969D01*
X278000Y273031D02*
Y276969D01*
X266032Y275000D02*
X269969D01*
X268000Y273031D02*
Y276969D01*
X256031Y275000D02*
X259968D01*
X258000Y273031D02*
Y276969D01*
X246031Y275000D02*
X249969D01*
X248000Y273031D02*
Y276969D01*
X236032Y275000D02*
X239968D01*
X238000Y273031D02*
Y276969D01*
X226031Y275000D02*
X229969D01*
X228000Y273031D02*
Y276969D01*
X216032Y275000D02*
X219969D01*
X218000Y273031D02*
Y276969D01*
X206031Y275000D02*
X209968D01*
X208000Y273031D02*
Y276969D01*
X196031Y275000D02*
X199969D01*
X198000Y273031D02*
Y276969D01*
X186031Y275000D02*
X189969D01*
X188000Y273031D02*
Y276969D01*
X176031Y275000D02*
X179969D01*
X178000Y273031D02*
Y276969D01*
X166032Y275000D02*
X169968D01*
X168000Y273031D02*
Y276969D01*
X156032Y275000D02*
X159968D01*
X158000Y273031D02*
Y276969D01*
X146031Y275000D02*
X149969D01*
X148000Y273031D02*
Y276969D01*
X136031Y275000D02*
X139969D01*
X138000Y273031D02*
Y276969D01*
X126031Y275000D02*
X129969D01*
X128000Y273031D02*
Y276969D01*
X116032Y275000D02*
X119968D01*
X118000Y273031D02*
Y276969D01*
X106032Y275000D02*
X109968D01*
X108000Y273031D02*
Y276969D01*
X96031Y275000D02*
X99968D01*
X98000Y273031D02*
Y276969D01*
X86032Y275000D02*
X89969D01*
X88000Y273031D02*
Y276969D01*
X96031Y335000D02*
X99968D01*
X98000Y333032D02*
Y336968D01*
X70079Y64961D02*
X73228D01*
X71653Y63386D02*
Y66535D01*
X100000Y64961D02*
X103150D01*
X101575Y63386D02*
Y66535D01*
X32500Y89567D02*
X36398D01*
X34449Y87618D02*
Y91516D01*
X32500Y63976D02*
X36398D01*
X34449Y62028D02*
Y65925D01*
X14784Y89567D02*
X18681D01*
X16732Y87618D02*
Y91516D01*
X14784Y63976D02*
X18681D01*
X16732Y62028D02*
Y65925D01*
X32874Y178150D02*
X37992D01*
X35433Y175591D02*
Y180709D01*
X32874Y128937D02*
X37992D01*
X35433Y126378D02*
Y131496D01*
X13189Y178150D02*
X18307D01*
X15748Y175591D02*
Y180709D01*
X13189Y128937D02*
X18307D01*
X15748Y126378D02*
Y131496D01*
X260335Y192913D02*
X263287D01*
X261811Y191437D02*
Y194390D01*
X260335Y220472D02*
X263287D01*
X261811Y218996D02*
Y221949D01*
X239272Y315118D02*
X242382D01*
X240827Y313563D02*
Y316673D01*
X239272Y305118D02*
X242382D01*
X240827Y303563D02*
Y306673D01*
X239272Y295118D02*
X242382D01*
X240827Y293563D02*
Y296673D01*
X122461Y296929D02*
X125571D01*
X124016Y295374D02*
Y298484D01*
X122461Y306929D02*
X125571D01*
X124016Y305374D02*
Y308484D01*
X122461Y316929D02*
X125571D01*
X124016Y315374D02*
Y318484D01*
X293169Y301181D02*
X297382D01*
X295276Y299075D02*
Y303287D01*
X293169Y311181D02*
X297382D01*
X295276Y309075D02*
Y313287D01*
X266240Y320866D02*
X269193D01*
X267717Y319390D02*
Y322342D01*
X266240Y293307D02*
X269193D01*
X267717Y291831D02*
Y294783D01*
X98917Y320866D02*
X101870D01*
X100394Y319390D02*
Y322342D01*
X98917Y293307D02*
X101870D01*
X100394Y291831D02*
Y294783D01*
X38228Y289000D02*
X41772D01*
X40000Y287228D02*
Y290772D01*
X28386Y289000D02*
X31929D01*
X30158Y287228D02*
Y290772D01*
X18543Y289000D02*
X22087D01*
X20315Y287228D02*
Y290772D01*
X335014Y265748D02*
X338214D01*
X336614Y264148D02*
Y267348D01*
X335014Y285433D02*
X338214D01*
X336614Y283833D02*
Y287033D01*
X335014Y275590D02*
X338214D01*
X336614Y273991D02*
Y277190D01*
X321094Y21000D02*
X332906D01*
X327000Y15094D02*
Y26906D01*
X18094Y24000D02*
X29906D01*
X24000Y18094D02*
Y29906D01*
X326095Y336000D02*
X337906D01*
X332000Y330095D02*
Y341905D01*
X18094Y325000D02*
X29906D01*
X24000Y319094D02*
Y330906D01*
X252244Y165354D02*
X255630D01*
X253937Y163661D02*
Y167047D01*
X257165Y165354D02*
X260551D01*
X258858Y163661D02*
Y167047D01*
X262087Y165354D02*
X265472D01*
X263779Y163661D02*
Y167047D01*
X267008Y165354D02*
X270394D01*
X268701Y163661D02*
Y167047D01*
X310039Y198130D02*
X311811D01*
X310925Y197244D02*
Y199016D01*
X301181Y330709D02*
X302953D01*
X302067Y329823D02*
Y331594D01*
X220866Y318504D02*
X222638D01*
X221752Y317618D02*
Y319390D01*
X141142Y324902D02*
X142913D01*
X142028Y324016D02*
Y325787D01*
X144882Y252953D02*
X146653D01*
X145768Y252067D02*
Y253839D01*
X109744Y252658D02*
X111516D01*
X110630Y251772D02*
Y253543D01*
X7874Y201181D02*
X9646D01*
X8760Y200295D02*
Y202067D01*
X31299Y42323D02*
X33071D01*
X32185Y41437D02*
Y43209D01*
X158465Y100295D02*
X160236D01*
X159350Y99410D02*
Y101181D01*
X188484Y74508D02*
X190256D01*
X189370Y73622D02*
Y75394D01*
X312456Y45487D02*
X314227D01*
X313341Y44601D02*
Y46373D01*
X313825Y79952D02*
X315596D01*
X314711Y79066D02*
Y80838D01*
X258563Y116142D02*
X260335D01*
X259449Y115256D02*
Y117027D01*
X169658Y114567D02*
X171158D01*
X170408Y113817D02*
Y115317D01*
X185470Y106693D02*
X186970D01*
X186221Y105943D02*
Y107443D01*
X183502Y96850D02*
X185002D01*
X184252Y96100D02*
Y97600D01*
X171691Y85039D02*
X173191D01*
X172441Y84289D02*
Y85789D01*
X70116Y309055D02*
X71616D01*
X70866Y308305D02*
Y309805D01*
X255155Y253937D02*
X256656D01*
X255906Y253187D02*
Y254687D01*
X261061Y248031D02*
X262561D01*
X261811Y247282D02*
Y248781D01*
X276809Y248031D02*
X278309D01*
X277559Y247282D02*
Y248781D01*
X188226Y324803D02*
X189726D01*
X188976Y324053D02*
Y325553D01*
M02*
