G04*
G04 #@! TF.GenerationSoftware,Altium Limited,Altium Designer,24.0.1 (36)*
G04*
G04 Layer_Color=2752767*
%FSLAX25Y25*%
%MOIN*%
G70*
G04*
G04 #@! TF.SameCoordinates,33EB6A70-A770-4DF6-8785-8125C03B2395*
G04*
G04*
G04 #@! TF.FilePolarity,Positive*
G04*
G01*
G75*
%ADD10C,0.00500*%
%ADD93C,0.00400*%
%ADD96C,0.00667*%
D10*
X328000Y212000D02*
Y216000D01*
X332000D01*
Y212000D01*
X328000D01*
X328800Y212800D02*
Y215200D01*
X331200D01*
Y212800D01*
X328800D01*
X328000Y242000D02*
Y246000D01*
X332000D01*
Y242000D01*
X328000D01*
X328800Y242800D02*
Y245200D01*
X331200D01*
Y242800D01*
X328800D01*
X328000Y232000D02*
Y236000D01*
X332000D01*
Y232000D01*
X328000D01*
X328800Y232800D02*
Y235200D01*
X331200D01*
Y232800D01*
X328800D01*
X328000Y222000D02*
Y226000D01*
X332000D01*
Y222000D01*
X328000D01*
X328800Y222800D02*
Y225200D01*
X331200D01*
Y222800D01*
X328800D01*
X225645Y76847D02*
X226645Y78847D01*
X225645Y80847D01*
X227645Y79847D01*
X229645Y80847D01*
X228645Y78847D01*
X229645Y76847D01*
X227645Y77847D01*
X225645Y76847D01*
X226445Y77647D02*
X227045Y78847D01*
X226445Y80047D01*
X227645Y79447D01*
X228845Y80047D01*
X228245Y78847D01*
X228845Y77647D01*
X227645Y78247D01*
X226445Y77647D01*
X214334Y57256D02*
X215334Y59256D01*
X214334Y61256D01*
X216334Y60256D01*
X218334Y61256D01*
X217334Y59256D01*
X218334Y57256D01*
X216334Y58256D01*
X214334Y57256D01*
X215134Y58056D02*
X215734Y59256D01*
X215134Y60456D01*
X216334Y59856D01*
X217534Y60456D01*
X216934Y59256D01*
X217534Y58056D01*
X216334Y58656D01*
X215134Y58056D01*
X194744Y45946D02*
X195744Y47946D01*
X194744Y49946D01*
X196744Y48946D01*
X198744Y49946D01*
X197744Y47946D01*
X198744Y45946D01*
X196744Y46946D01*
X194744Y45946D01*
X195544Y46746D02*
X196144Y47946D01*
X195544Y49146D01*
X196744Y48546D01*
X197944Y49146D01*
X197344Y47946D01*
X197944Y46746D01*
X196744Y47346D01*
X195544Y46746D01*
X172123Y45946D02*
X173123Y47946D01*
X172123Y49946D01*
X174123Y48946D01*
X176122Y49946D01*
X175122Y47946D01*
X176122Y45946D01*
X174123Y46946D01*
X172123Y45946D01*
X172923Y46746D02*
X173522Y47946D01*
X172923Y49146D01*
X174123Y48546D01*
X175322Y49146D01*
X174723Y47946D01*
X175322Y46746D01*
X174123Y47346D01*
X172923Y46746D01*
X152532Y57256D02*
X153532Y59256D01*
X152532Y61256D01*
X154532Y60256D01*
X156532Y61256D01*
X155532Y59256D01*
X156532Y57256D01*
X154532Y58256D01*
X152532Y57256D01*
X153332Y58056D02*
X153932Y59256D01*
X153332Y60456D01*
X154532Y59856D01*
X155732Y60456D01*
X155132Y59256D01*
X155732Y58056D01*
X154532Y58656D01*
X153332Y58056D01*
X194151Y77439D02*
X195151Y79440D01*
X194151Y81440D01*
X196151Y80440D01*
X198151Y81440D01*
X197151Y79440D01*
X198151Y77439D01*
X196151Y78439D01*
X194151Y77439D01*
X194951Y78240D02*
X195551Y79440D01*
X194951Y80639D01*
X196151Y80040D01*
X197351Y80639D01*
X196751Y79440D01*
X197351Y78240D01*
X196151Y78839D01*
X194951Y78240D01*
X141221Y76847D02*
X142221Y78847D01*
X141221Y80847D01*
X143221Y79847D01*
X145221Y80847D01*
X144221Y78847D01*
X145221Y76847D01*
X143221Y77847D01*
X141221Y76847D01*
X142021Y77647D02*
X142621Y78847D01*
X142021Y80047D01*
X143221Y79447D01*
X144421Y80047D01*
X143821Y78847D01*
X144421Y77647D01*
X143221Y78247D01*
X142021Y77647D01*
X141221Y99468D02*
X142221Y101468D01*
X141221Y103468D01*
X143221Y102468D01*
X145221Y103468D01*
X144221Y101468D01*
X145221Y99468D01*
X143221Y100468D01*
X141221Y99468D01*
X142021Y100268D02*
X142621Y101468D01*
X142021Y102668D01*
X143221Y102068D01*
X144421Y102668D01*
X143821Y101468D01*
X144421Y100268D01*
X143221Y100868D01*
X142021Y100268D01*
X152532Y119059D02*
X153532Y121059D01*
X152532Y123059D01*
X154532Y122059D01*
X156532Y123059D01*
X155532Y121059D01*
X156532Y119059D01*
X154532Y120059D01*
X152532Y119059D01*
X153332Y119859D02*
X153932Y121059D01*
X153332Y122259D01*
X154532Y121659D01*
X155732Y122259D01*
X155132Y121059D01*
X155732Y119859D01*
X154532Y120459D01*
X153332Y119859D01*
X172123Y130369D02*
X173123Y132369D01*
X172123Y134369D01*
X174123Y133369D01*
X176122Y134369D01*
X175122Y132369D01*
X176122Y130369D01*
X174123Y131369D01*
X172123Y130369D01*
X172923Y131169D02*
X173522Y132369D01*
X172923Y133569D01*
X174123Y132969D01*
X175322Y133569D01*
X174723Y132369D01*
X175322Y131169D01*
X174123Y131769D01*
X172923Y131169D01*
X194744Y130369D02*
X195744Y132369D01*
X194744Y134369D01*
X196744Y133369D01*
X198744Y134369D01*
X197744Y132369D01*
X198744Y130369D01*
X196744Y131369D01*
X194744Y130369D01*
X195544Y131169D02*
X196144Y132369D01*
X195544Y133569D01*
X196744Y132969D01*
X197944Y133569D01*
X197344Y132369D01*
X197944Y131169D01*
X196744Y131769D01*
X195544Y131169D01*
X214334Y119059D02*
X215334Y121059D01*
X214334Y123059D01*
X216334Y122059D01*
X218334Y123059D01*
X217334Y121059D01*
X218334Y119059D01*
X216334Y120059D01*
X214334Y119059D01*
X215134Y119859D02*
X215734Y121059D01*
X215134Y122259D01*
X216334Y121659D01*
X217534Y122259D01*
X216934Y121059D01*
X217534Y119859D01*
X216334Y120459D01*
X215134Y119859D01*
X172715Y98875D02*
X173715Y100875D01*
X172715Y102875D01*
X174715Y101875D01*
X176715Y102875D01*
X175715Y100875D01*
X176715Y98875D01*
X174715Y99875D01*
X172715Y98875D01*
X173515Y99675D02*
X174115Y100875D01*
X173515Y102075D01*
X174715Y101475D01*
X175915Y102075D01*
X175315Y100875D01*
X175915Y99675D01*
X174715Y100275D01*
X173515Y99675D01*
X225645Y99468D02*
X226645Y101468D01*
X225645Y103468D01*
X227645Y102468D01*
X229645Y103468D01*
X228645Y101468D01*
X229645Y99468D01*
X227645Y100468D01*
X225645Y99468D01*
X226445Y100268D02*
X227045Y101468D01*
X226445Y102668D01*
X227645Y102068D01*
X228845Y102668D01*
X228245Y101468D01*
X228845Y100268D01*
X227645Y100868D01*
X226445Y100268D01*
X300394Y109417D02*
X298394Y113417D01*
X302394D01*
X300394Y109417D01*
X281791Y119959D02*
Y114961D01*
X284291D01*
X285124Y115794D01*
Y119126D01*
X284291Y119959D01*
X281791D01*
X151265Y241173D02*
X150432Y242006D01*
X148766D01*
X147933Y241173D01*
Y237841D01*
X148766Y237008D01*
X150432D01*
X151265Y237841D01*
X101265Y241173D02*
X100432Y242006D01*
X98766D01*
X97933Y241173D01*
Y237841D01*
X98766Y237008D01*
X100432D01*
X101265Y237841D01*
X65256Y119959D02*
Y114961D01*
X67755D01*
X68588Y115794D01*
Y119126D01*
X67755Y119959D01*
X65256D01*
X275559Y218472D02*
X276559D01*
X277559Y219472D01*
X278559Y218472D01*
X279559D01*
Y219472D01*
X278559Y220472D01*
X279559Y221472D01*
Y222472D01*
X278559D01*
X277559Y221472D01*
X276559Y222472D01*
X275559D01*
Y221472D01*
X276559Y220472D01*
X275559Y219472D01*
Y218472D01*
Y190913D02*
X276559D01*
X277559Y191913D01*
X278559Y190913D01*
X279559D01*
Y191913D01*
X278559Y192913D01*
X279559Y193913D01*
Y194913D01*
X278559D01*
X277559Y193913D01*
X276559Y194913D01*
X275559D01*
Y193913D01*
X276559Y192913D01*
X275559Y191913D01*
Y190913D01*
X244063Y218472D02*
X245063D01*
X246063Y219472D01*
X247063Y218472D01*
X248063D01*
Y219472D01*
X247063Y220472D01*
X248063Y221472D01*
Y222472D01*
X247063D01*
X246063Y221472D01*
X245063Y222472D01*
X244063D01*
Y221472D01*
X245063Y220472D01*
X244063Y219472D01*
Y218472D01*
Y190913D02*
X245063D01*
X246063Y191913D01*
X247063Y190913D01*
X248063D01*
Y191913D01*
X247063Y192913D01*
X248063Y193913D01*
Y194913D01*
X247063D01*
X246063Y193913D01*
X245063Y194913D01*
X244063D01*
Y193913D01*
X245063Y192913D01*
X244063Y191913D01*
Y190913D01*
X62646Y249969D02*
Y253969D01*
X66646D01*
Y249969D01*
X62646D01*
X63446Y250768D02*
Y253169D01*
X65846D01*
Y250768D01*
X63446D01*
X72646Y249969D02*
Y253969D01*
X76646D01*
Y249969D01*
X72646D01*
X73446Y250768D02*
Y253169D01*
X75846D01*
Y250768D01*
X73446D01*
X82646Y249969D02*
Y253969D01*
X86646D01*
Y249969D01*
X82646D01*
X83446Y250768D02*
Y253169D01*
X85846D01*
Y250768D01*
X83446D01*
X344094Y43118D02*
X345094Y44118D01*
X346094D01*
X345094Y45118D01*
X346094Y46118D01*
X345094D01*
X344094Y47118D01*
X343094Y46118D01*
X342094D01*
X343094Y45118D01*
X342094Y44118D01*
X343094D01*
X344094Y43118D01*
Y43918D02*
X344694Y44518D01*
X345294D01*
X344694Y45118D01*
X345294Y45718D01*
X344694D01*
X344094Y46318D01*
X343495Y45718D01*
X342895D01*
X343495Y45118D01*
X342895Y44518D01*
X343495D01*
X344094Y43918D01*
Y77134D02*
X345094Y78134D01*
X346094D01*
X345094Y79134D01*
X346094Y80134D01*
X345094D01*
X344094Y81134D01*
X343094Y80134D01*
X342094D01*
X343094Y79134D01*
X342094Y78134D01*
X343094D01*
X344094Y77134D01*
Y77934D02*
X344694Y78534D01*
X345294D01*
X344694Y79134D01*
X345294Y79734D01*
X344694D01*
X344094Y80334D01*
X343495Y79734D01*
X342895D01*
X343495Y79134D01*
X342895Y78534D01*
X343495D01*
X344094Y77934D01*
X329134Y43118D02*
X330134Y44118D01*
X331134D01*
X330134Y45118D01*
X331134Y46118D01*
X330134D01*
X329134Y47118D01*
X328134Y46118D01*
X327134D01*
X328134Y45118D01*
X327134Y44118D01*
X328134D01*
X329134Y43118D01*
Y43918D02*
X329734Y44518D01*
X330334D01*
X329734Y45118D01*
X330334Y45718D01*
X329734D01*
X329134Y46318D01*
X328534Y45718D01*
X327934D01*
X328534Y45118D01*
X327934Y44518D01*
X328534D01*
X329134Y43918D01*
Y77134D02*
X330134Y78134D01*
X331134D01*
X330134Y79134D01*
X331134Y80134D01*
X330134D01*
X329134Y81134D01*
X328134Y80134D01*
X327134D01*
X328134Y79134D01*
X327134Y78134D01*
X328134D01*
X329134Y77134D01*
Y77934D02*
X329734Y78534D01*
X330334D01*
X329734Y79134D01*
X330334Y79734D01*
X329734D01*
X329134Y80334D01*
X328534Y79734D01*
X327934D01*
X328534Y79134D01*
X327934Y78534D01*
X328534D01*
X329134Y77934D01*
X193669Y301150D02*
Y305150D01*
X197669D01*
Y301150D01*
X193669D01*
X194469Y301950D02*
Y304350D01*
X196869D01*
Y301950D01*
X194469D01*
X170047Y301150D02*
Y305150D01*
X174047D01*
Y301150D01*
X170047D01*
X170847Y301950D02*
Y304350D01*
X173247D01*
Y301950D01*
X170847D01*
X193669Y309024D02*
Y313024D01*
X197669D01*
Y309024D01*
X193669D01*
X194469Y309824D02*
Y312224D01*
X196869D01*
Y309824D01*
X194469D01*
X185795Y309024D02*
Y313024D01*
X189795D01*
Y309024D01*
X185795D01*
X186595Y309824D02*
Y312224D01*
X188995D01*
Y309824D01*
X186595D01*
X177921Y309024D02*
Y313024D01*
X181921D01*
Y309024D01*
X177921D01*
X178721Y309824D02*
Y312224D01*
X181121D01*
Y309824D01*
X178721D01*
X185795Y301150D02*
Y305150D01*
X189795D01*
Y301150D01*
X185795D01*
X186595Y301950D02*
Y304350D01*
X188995D01*
Y301950D01*
X186595D01*
X177921Y301150D02*
Y305150D01*
X181921D01*
Y301150D01*
X177921D01*
X178721Y301950D02*
Y304350D01*
X181121D01*
Y301950D01*
X178721D01*
X170047Y309024D02*
Y313024D01*
X174047D01*
Y309024D01*
X170047D01*
X170847Y309824D02*
Y312224D01*
X173247D01*
Y309824D01*
X170847D01*
X86000Y333000D02*
Y337000D01*
X90000D01*
Y333000D01*
X86000D01*
X106000D02*
Y337000D01*
X110000D01*
Y333000D01*
X106000D01*
X116000D02*
Y337000D01*
X120000D01*
Y333000D01*
X116000D01*
X126000D02*
Y337000D01*
X130000D01*
Y333000D01*
X126000D01*
X136000D02*
Y337000D01*
X140000D01*
Y333000D01*
X136000D01*
X146000D02*
Y337000D01*
X150000D01*
Y333000D01*
X146000D01*
X156000D02*
Y337000D01*
X160000D01*
Y333000D01*
X156000D01*
X166000D02*
Y337000D01*
X170000D01*
Y333000D01*
X166000D01*
X176000D02*
Y337000D01*
X180000D01*
Y333000D01*
X176000D01*
X186000D02*
Y337000D01*
X190000D01*
Y333000D01*
X186000D01*
X196000D02*
Y337000D01*
X200000D01*
Y333000D01*
X196000D01*
X206000D02*
Y337000D01*
X210000D01*
Y333000D01*
X206000D01*
X216000D02*
Y337000D01*
X220000D01*
Y333000D01*
X216000D01*
X226000D02*
Y337000D01*
X230000D01*
Y333000D01*
X226000D01*
X236000D02*
Y337000D01*
X240000D01*
Y333000D01*
X236000D01*
X246000D02*
Y337000D01*
X250000D01*
Y333000D01*
X246000D01*
X256000D02*
Y337000D01*
X260000D01*
Y333000D01*
X256000D01*
X266000D02*
Y337000D01*
X270000D01*
Y333000D01*
X266000D01*
X276000D02*
Y337000D01*
X280000D01*
Y333000D01*
X276000D01*
Y273000D02*
Y277000D01*
X280000D01*
Y273000D01*
X276000D01*
X266000D02*
Y277000D01*
X270000D01*
Y273000D01*
X266000D01*
X256000D02*
Y277000D01*
X260000D01*
Y273000D01*
X256000D01*
X246000D02*
Y277000D01*
X250000D01*
Y273000D01*
X246000D01*
X236000D02*
Y277000D01*
X240000D01*
Y273000D01*
X236000D01*
X226000D02*
Y277000D01*
X230000D01*
Y273000D01*
X226000D01*
X216000D02*
Y277000D01*
X220000D01*
Y273000D01*
X216000D01*
X206000D02*
Y277000D01*
X210000D01*
Y273000D01*
X206000D01*
X196000D02*
Y277000D01*
X200000D01*
Y273000D01*
X196000D01*
X186000D02*
Y277000D01*
X190000D01*
Y273000D01*
X186000D01*
X176000D02*
Y277000D01*
X180000D01*
Y273000D01*
X176000D01*
X166000D02*
Y277000D01*
X170000D01*
Y273000D01*
X166000D01*
X156000D02*
Y277000D01*
X160000D01*
Y273000D01*
X156000D01*
X146000D02*
Y277000D01*
X150000D01*
Y273000D01*
X146000D01*
X136000D02*
Y277000D01*
X140000D01*
Y273000D01*
X136000D01*
X126000D02*
Y277000D01*
X130000D01*
Y273000D01*
X126000D01*
X116000D02*
Y277000D01*
X120000D01*
Y273000D01*
X116000D01*
X106000D02*
Y277000D01*
X110000D01*
Y273000D01*
X106000D01*
X96000D02*
Y277000D01*
X100000D01*
Y273000D01*
X96000D01*
X86000D02*
Y277000D01*
X90000D01*
Y273000D01*
X86000D01*
X96000Y333000D02*
Y337000D01*
X100000D01*
Y333000D01*
X96000D01*
X71653Y62961D02*
X72654Y63961D01*
X73654D01*
X72654Y64961D01*
X73654Y65961D01*
X72654D01*
X71653Y66961D01*
X70653Y65961D01*
X69653D01*
X70653Y64961D01*
X69653Y63961D01*
X70653D01*
X71653Y62961D01*
X101575D02*
X102575Y63961D01*
X103575D01*
X102575Y64961D01*
X103575Y65961D01*
X102575D01*
X101575Y66961D01*
X100575Y65961D01*
X99575D01*
X100575Y64961D01*
X99575Y63961D01*
X100575D01*
X101575Y62961D01*
X33449Y88567D02*
Y87567D01*
X35449D01*
Y88567D01*
X36449D01*
Y90567D01*
X35449D01*
Y91567D01*
X33449D01*
Y90567D01*
X32449D01*
Y88567D01*
X33449D01*
Y62976D02*
Y61976D01*
X35449D01*
Y62976D01*
X36449D01*
Y64976D01*
X35449D01*
Y65976D01*
X33449D01*
Y64976D01*
X32449D01*
Y62976D01*
X33449D01*
X15732Y88567D02*
Y87567D01*
X17732D01*
Y88567D01*
X18732D01*
Y90567D01*
X17732D01*
Y91567D01*
X15732D01*
Y90567D01*
X14732D01*
Y88567D01*
X15732D01*
Y62976D02*
Y61976D01*
X17732D01*
Y62976D01*
X18732D01*
Y64976D01*
X17732D01*
Y65976D01*
X15732D01*
Y64976D01*
X14732D01*
Y62976D01*
X15732D01*
X35433Y178150D02*
Y181482D01*
X37099Y183148D01*
X38765Y181482D01*
Y178150D01*
Y180649D01*
X35433D01*
Y128937D02*
Y132269D01*
X37099Y133935D01*
X38765Y132269D01*
Y128937D01*
Y131436D01*
X35433D01*
X15748Y178150D02*
Y181482D01*
X17414Y183148D01*
X19080Y181482D01*
Y178150D01*
Y180649D01*
X15748D01*
Y128937D02*
Y132269D01*
X17414Y133935D01*
X19080Y132269D01*
Y128937D01*
Y131436D01*
X15748D01*
X259811Y190913D02*
X260811D01*
X261811Y191913D01*
X262811Y190913D01*
X263811D01*
Y191913D01*
X262811Y192913D01*
X263811Y193913D01*
Y194913D01*
X262811D01*
X261811Y193913D01*
X260811Y194913D01*
X259811D01*
Y193913D01*
X260811Y192913D01*
X259811Y191913D01*
Y190913D01*
Y218472D02*
X260811D01*
X261811Y219472D01*
X262811Y218472D01*
X263811D01*
Y219472D01*
X262811Y220472D01*
X263811Y221472D01*
Y222472D01*
X262811D01*
X261811Y221472D01*
X260811Y222472D01*
X259811D01*
Y221472D01*
X260811Y220472D01*
X259811Y219472D01*
Y218472D01*
X238827Y315118D02*
X240827Y317118D01*
X242827Y315118D01*
X240827Y313118D01*
X238827Y315118D01*
Y305118D02*
X240827Y307118D01*
X242827Y305118D01*
X240827Y303118D01*
X238827Y305118D01*
Y295118D02*
X240827Y297118D01*
X242827Y295118D01*
X240827Y293118D01*
X238827Y295118D01*
X122016Y296929D02*
X124016Y298929D01*
X126016Y296929D01*
X124016Y294929D01*
X122016Y296929D01*
Y306929D02*
X124016Y308929D01*
X126016Y306929D01*
X124016Y304929D01*
X122016Y306929D01*
Y316929D02*
X124016Y318929D01*
X126016Y316929D01*
X124016Y314929D01*
X122016Y316929D01*
X293276Y299181D02*
X294276Y301181D01*
X293276Y303181D01*
X295276Y302181D01*
X297276Y303181D01*
X296276Y301181D01*
X297276Y299181D01*
X295276Y300181D01*
X293276Y299181D01*
Y309181D02*
X294276Y311181D01*
X293276Y313181D01*
X295276Y312181D01*
X297276Y313181D01*
X296276Y311181D01*
X297276Y309181D01*
X295276Y310181D01*
X293276Y309181D01*
X265717Y318866D02*
X266717D01*
X267717Y319866D01*
X268717Y318866D01*
X269717D01*
Y319866D01*
X268717Y320866D01*
X269717Y321866D01*
Y322866D01*
X268717D01*
X267717Y321866D01*
X266717Y322866D01*
X265717D01*
Y321866D01*
X266717Y320866D01*
X265717Y319866D01*
Y318866D01*
Y291307D02*
X266717D01*
X267717Y292307D01*
X268717Y291307D01*
X269717D01*
Y292307D01*
X268717Y293307D01*
X269717Y294307D01*
Y295307D01*
X268717D01*
X267717Y294307D01*
X266717Y295307D01*
X265717D01*
Y294307D01*
X266717Y293307D01*
X265717Y292307D01*
Y291307D01*
X98394Y318866D02*
X99394D01*
X100394Y319866D01*
X101394Y318866D01*
X102394D01*
Y319866D01*
X101394Y320866D01*
X102394Y321866D01*
Y322866D01*
X101394D01*
X100394Y321866D01*
X99394Y322866D01*
X98394D01*
Y321866D01*
X99394Y320866D01*
X98394Y319866D01*
Y318866D01*
Y291307D02*
X99394D01*
X100394Y292307D01*
X101394Y291307D01*
X102394D01*
Y292307D01*
X101394Y293307D01*
X102394Y294307D01*
Y295307D01*
X101394D01*
X100394Y294307D01*
X99394Y295307D01*
X98394D01*
Y294307D01*
X99394Y293307D01*
X98394Y292307D01*
Y291307D01*
X39000Y288000D02*
Y287000D01*
X41000D01*
Y288000D01*
X42000D01*
Y290000D01*
X41000D01*
Y291000D01*
X39000D01*
Y290000D01*
X38000D01*
Y288000D01*
X39000D01*
X39400Y288400D02*
Y287800D01*
X40600D01*
Y288400D01*
X41200D01*
Y289600D01*
X40600D01*
Y290200D01*
X39400D01*
Y289600D01*
X38800D01*
Y288400D01*
X39400D01*
X29158Y288000D02*
Y287000D01*
X31157D01*
Y288000D01*
X32157D01*
Y290000D01*
X31157D01*
Y291000D01*
X29158D01*
Y290000D01*
X28157D01*
Y288000D01*
X29158D01*
X29557Y288400D02*
Y287800D01*
X30757D01*
Y288400D01*
X31357D01*
Y289600D01*
X30757D01*
Y290200D01*
X29557D01*
Y289600D01*
X28958D01*
Y288400D01*
X29557D01*
X19315Y288000D02*
Y287000D01*
X21315D01*
Y288000D01*
X22315D01*
Y290000D01*
X21315D01*
Y291000D01*
X19315D01*
Y290000D01*
X18315D01*
Y288000D01*
X19315D01*
X19715Y288400D02*
Y287800D01*
X20915D01*
Y288400D01*
X21515D01*
Y289600D01*
X20915D01*
Y290200D01*
X19715D01*
Y289600D01*
X19115D01*
Y288400D01*
X19715D01*
X334614Y263748D02*
X335614D01*
X336614Y264748D01*
X337614Y263748D01*
X338614D01*
Y264748D01*
X337614Y265748D01*
X338614Y266748D01*
Y267748D01*
X337614D01*
X336614Y266748D01*
X335614Y267748D01*
X334614D01*
Y266748D01*
X335614Y265748D01*
X334614Y264748D01*
Y263748D01*
X335414Y264548D02*
X336014D01*
X336614Y265148D01*
X337214Y264548D01*
X337814D01*
Y265148D01*
X337214Y265748D01*
X337814Y266348D01*
Y266948D01*
X337214D01*
X336614Y266348D01*
X336014Y266948D01*
X335414D01*
Y266348D01*
X336014Y265748D01*
X335414Y265148D01*
Y264548D01*
X334614Y283433D02*
X335614D01*
X336614Y284433D01*
X337614Y283433D01*
X338614D01*
Y284433D01*
X337614Y285433D01*
X338614Y286433D01*
Y287433D01*
X337614D01*
X336614Y286433D01*
X335614Y287433D01*
X334614D01*
Y286433D01*
X335614Y285433D01*
X334614Y284433D01*
Y283433D01*
X335414Y284233D02*
X336014D01*
X336614Y284833D01*
X337214Y284233D01*
X337814D01*
Y284833D01*
X337214Y285433D01*
X337814Y286033D01*
Y286633D01*
X337214D01*
X336614Y286033D01*
X336014Y286633D01*
X335414D01*
Y286033D01*
X336014Y285433D01*
X335414Y284833D01*
Y284233D01*
X334614Y273590D02*
X335614D01*
X336614Y274590D01*
X337614Y273590D01*
X338614D01*
Y274590D01*
X337614Y275590D01*
X338614Y276590D01*
Y277590D01*
X337614D01*
X336614Y276590D01*
X335614Y277590D01*
X334614D01*
Y276590D01*
X335614Y275590D01*
X334614Y274590D01*
Y273590D01*
X335414Y274391D02*
X336014D01*
X336614Y274991D01*
X337214Y274391D01*
X337814D01*
Y274991D01*
X337214Y275590D01*
X337814Y276190D01*
Y276790D01*
X337214D01*
X336614Y276190D01*
X336014Y276790D01*
X335414D01*
Y276190D01*
X336014Y275590D01*
X335414Y274991D01*
Y274391D01*
X327000Y25998D02*
Y21000D01*
X329499D01*
X330332Y21833D01*
Y22666D01*
X329499Y23499D01*
X327000D01*
X329499D01*
X330332Y24332D01*
Y25165D01*
X329499Y25998D01*
X327000D01*
X24000Y28998D02*
Y24000D01*
X26499D01*
X27332Y24833D01*
Y25666D01*
X26499Y26499D01*
X24000D01*
X26499D01*
X27332Y27332D01*
Y28165D01*
X26499Y28998D01*
X24000D01*
X332000Y340998D02*
Y336000D01*
X334499D01*
X335332Y336833D01*
Y337666D01*
X334499Y338499D01*
X332000D01*
X334499D01*
X335332Y339332D01*
Y340165D01*
X334499Y340998D01*
X332000D01*
X24000Y329998D02*
Y325000D01*
X26499D01*
X27332Y325833D01*
Y326666D01*
X26499Y327499D01*
X24000D01*
X26499D01*
X27332Y328332D01*
Y329165D01*
X26499Y329998D01*
X24000D01*
X253937Y163354D02*
X251937Y167354D01*
X255937D01*
X253937Y163354D01*
Y164154D02*
X252737Y166554D01*
X255137D01*
X253937Y164154D01*
X258858Y163354D02*
X256858Y167354D01*
X260858D01*
X258858Y163354D01*
Y164154D02*
X257658Y166554D01*
X260058D01*
X258858Y164154D01*
X263779Y163354D02*
X261779Y167354D01*
X265779D01*
X263779Y163354D01*
Y164154D02*
X262579Y166554D01*
X264980D01*
X263779Y164154D01*
X268701Y163354D02*
X266701Y167354D01*
X270701D01*
X268701Y163354D01*
Y164154D02*
X267501Y166554D01*
X269901D01*
X268701Y164154D01*
X314258Y203128D02*
X310925D01*
Y198130D01*
X314258D01*
X310925Y200629D02*
X312591D01*
X305399Y335707D02*
X302067D01*
Y330709D01*
X305399D01*
X302067Y333208D02*
X303733D01*
X225084Y323502D02*
X221752D01*
Y318504D01*
X225084D01*
X221752Y321003D02*
X223418D01*
X145360Y329900D02*
X142028D01*
Y324902D01*
X145360D01*
X142028Y327401D02*
X143694D01*
X149100Y257951D02*
X145768D01*
Y252953D01*
X149100D01*
X145768Y255452D02*
X147434D01*
X113962Y257656D02*
X110630D01*
Y252658D01*
X113962D01*
X110630Y255157D02*
X112296D01*
X12092Y206179D02*
X8760D01*
Y201181D01*
X12092D01*
X8760Y203680D02*
X10426D01*
X35517Y47321D02*
X32185D01*
Y42323D01*
X35517D01*
X32185Y44822D02*
X33851D01*
X162683Y105294D02*
X159350D01*
Y100295D01*
X162683D01*
X159350Y102795D02*
X161016D01*
X192702Y79506D02*
X189370D01*
Y74508D01*
X192702D01*
X189370Y77007D02*
X191036D01*
X316673Y50485D02*
X313341D01*
Y45487D01*
X316673D01*
X313341Y47986D02*
X315007D01*
X318043Y84950D02*
X314711D01*
Y79952D01*
X318043D01*
X314711Y82451D02*
X316377D01*
X262781Y121140D02*
X259449D01*
Y116142D01*
X262781D01*
X259449Y118641D02*
X261115D01*
X173740Y119565D02*
X170408D01*
Y117066D01*
X172074D01*
X170408D01*
Y114567D01*
X189553Y111691D02*
X186221D01*
Y109192D01*
X187887D01*
X186221D01*
Y106693D01*
X187584Y101849D02*
X184252D01*
Y99350D01*
X185918D01*
X184252D01*
Y96850D01*
X175773Y90038D02*
X172441D01*
Y87539D01*
X174107D01*
X172441D01*
Y85039D01*
X74198Y314054D02*
X70866D01*
Y311554D01*
X72532D01*
X70866D01*
Y309055D01*
X259238Y258935D02*
X255906D01*
Y256436D01*
X257572D01*
X255906D01*
Y253937D01*
X265143Y253030D02*
X261811D01*
Y250531D01*
X263477D01*
X261811D01*
Y248031D01*
X280891Y253030D02*
X277559D01*
Y250531D01*
X279225D01*
X277559D01*
Y248031D01*
X192309Y329802D02*
X188976D01*
Y327302D01*
X190642D01*
X188976D01*
Y324803D01*
D93*
X37042Y228000D02*
G03*
X37042Y228000I-1200J0D01*
G01*
X17357D02*
G03*
X17357Y228000I-1200J0D01*
G01*
D96*
X326016Y111417D02*
G03*
X326016Y111417I-2000J0D01*
G01*
X314205Y92913D02*
G03*
X314205Y92913I-2000J0D01*
G01*
X37843Y228000D02*
G03*
X37843Y228000I-2000J0D01*
G01*
X18158D02*
G03*
X18158Y228000I-2000J0D01*
G01*
M02*
