G04*
G04 #@! TF.GenerationSoftware,Altium Limited,Altium Designer,24.0.1 (36)*
G04*
G04 Layer_Color=32768*
%FSLAX25Y25*%
%MOIN*%
G70*
G04*
G04 #@! TF.SameCoordinates,33EB6A70-A770-4DF6-8785-8125C03B2395*
G04*
G04*
G04 #@! TF.FilePolarity,Positive*
G04*
G01*
G75*
%ADD95C,0.00197*%
D95*
X240551Y90158D02*
G03*
X240551Y90158I-55118J0D01*
G01*
X42732Y228000D02*
G03*
X42732Y228000I-16732J0D01*
G01*
X111221Y64961D02*
G03*
X111221Y64961I-24606J0D01*
G01*
X307992Y306181D02*
G03*
X307992Y306181I-12717J0D01*
G01*
X273721Y165354D02*
G03*
X273721Y165354I-12402J0D01*
G01*
X296457Y92716D02*
X302165D01*
Y87402D02*
Y92716D01*
Y87402D02*
X322244D01*
Y92716D01*
X355512D01*
Y130118D01*
X296457D02*
X355512D01*
X296457Y120669D02*
Y130118D01*
Y92716D02*
Y102559D01*
X294291D02*
X296457D01*
X294291D02*
Y120669D01*
X296457D01*
X295571Y394D02*
Y240748D01*
X50295D02*
X295571D01*
X50295Y394D02*
Y240748D01*
Y394D02*
X295571D01*
X282185Y198819D02*
Y214567D01*
X281024Y198819D02*
X282185D01*
X281024Y189449D02*
Y198819D01*
X274095Y189449D02*
X281024D01*
X274095D02*
Y198819D01*
X272933D02*
X274095D01*
X272933D02*
Y214567D01*
X274095D01*
Y223937D01*
X281024D01*
Y214567D02*
Y223937D01*
Y214567D02*
X282185D01*
X250689Y198819D02*
Y214567D01*
X249528Y198819D02*
X250689D01*
X249528Y189449D02*
Y198819D01*
X242598Y189449D02*
X249528D01*
X242598D02*
Y198819D01*
X241437D02*
X242598D01*
X241437D02*
Y214567D01*
X242598D01*
Y223937D01*
X249528D01*
Y214567D02*
Y223937D01*
Y214567D02*
X250689D01*
X324213Y42165D02*
Y82087D01*
Y42165D02*
X355315D01*
Y82087D01*
X324213D02*
X355315D01*
X68551Y259016D02*
Y350984D01*
Y259016D02*
X288984D01*
Y350984D01*
X68551D02*
X288984D01*
X38386Y60039D02*
Y93504D01*
X12815Y60039D02*
X38386D01*
X12815D02*
Y93504D01*
X38386D01*
X984Y123721D02*
X50197D01*
Y183366D01*
X984D02*
X50197D01*
X984Y123721D02*
Y183366D01*
X265276Y214567D02*
X266437D01*
X265276D02*
Y223937D01*
X258347D02*
X265276D01*
X258347Y214567D02*
Y223937D01*
X257185Y214567D02*
X258347D01*
X257185Y198819D02*
Y214567D01*
Y198819D02*
X258347D01*
Y189449D02*
Y198819D01*
Y189449D02*
X265276D01*
Y198819D01*
X266437D01*
Y214567D01*
X234842Y318657D02*
X250992D01*
X234842Y291579D02*
Y318657D01*
Y291579D02*
X250992D01*
Y318657D01*
X113850Y293390D02*
X130000D01*
Y320468D01*
X113850D02*
X130000D01*
X113850Y293390D02*
Y320468D01*
X263091Y299213D02*
X264252D01*
Y289843D02*
Y299213D01*
Y289843D02*
X271181D01*
Y299213D01*
X272342D01*
Y314961D01*
X271181D02*
X272342D01*
X271181D02*
Y324331D01*
X264252D02*
X271181D01*
X264252Y314961D02*
Y324331D01*
X263091Y314961D02*
X264252D01*
X263091Y299213D02*
Y314961D01*
X95768Y299213D02*
X96929D01*
Y289843D02*
Y299213D01*
Y289843D02*
X103858D01*
Y299213D01*
X105020D01*
Y314961D01*
X103858D02*
X105020D01*
X103858D02*
Y324331D01*
X96929D02*
X103858D01*
X96929Y314961D02*
Y324331D01*
X95768Y314961D02*
X96929D01*
X95768Y299213D02*
Y314961D01*
X3583Y276008D02*
X56732D01*
X3583D02*
Y301992D01*
X56732D01*
Y276008D02*
Y301992D01*
M02*
