M48
;Layer_Color=9474304
;FILE_FORMAT=2:5
INCH,TZ
;TYPE=PLATED
T01F00S00C0.01500
T02F00S00C0.01772
T04F00S00C0.02953
T05F00S00C0.03000
T06F00S00C0.03110
T07F00S00C0.03150
T08F00S00C0.03200
T09F00S00C0.03346
T10F00S00C0.03386
T11F00S00C0.03504
T12F00S00C0.03543
T13F00S00C0.03898
T14F00S00C0.03937
T16F00S00C0.04213
T17F00S00C0.05118
T18F00S00C0.05906
T19F00S00C0.11811
;TYPE=NON_PLATED
T20F00S00C0.12402
%
T01
X172441Y85039
X184252Y96850
X186221Y106693
X170408Y114567
X70866Y309055
X188976Y324803
X255906Y253937
X261811Y248031
X277559
T02
X32185Y42323
X313341Y45487
X314711Y79952
X259449Y116142
X189370Y74508
X159350Y100295
X310925Y198130
X8760Y201181
X110630Y252658
X145768Y252953
X142028Y324902
X221752Y318504
X302067Y330709
T04
X246063Y192913
X261811
X277559
X100394Y293307
Y320866
X267717
Y293307
X261811Y220472
X246063
X277559
T05
X64646Y251969
X74646
X84646
X172047Y303150
X179921
X187795
X195669
Y311024
X187795
X179921
X172047
X330000Y244000
Y234000
Y224000
Y214000
T06
X124016Y296929
Y306929
Y316929
X240827Y315118
Y305118
Y295118
T07
X71653Y64961
X101575
T08
X336614Y265748
Y275590
Y285433
T09
X16158Y228000
X35842
T10
X253937Y165354
X258858
X263779
X268701
T11
X97933Y237008
X147933
T12
X20315Y289000
X30158
X40000
T13
X16732Y63976
X34449
Y89567
X16732
T14
X88000Y275000
X98000
X108000
X118000
X128000
X138000
X148000
Y335000
X138000
X128000
X118000
X108000
X98000
X88000
X158000
X168000
X178000
X188000
X198000
X208000
X218000
X228000
X238000
X248000
X258000
X268000
X278000
Y275000
X268000
X258000
X248000
X238000
X228000
X218000
X208000
X198000
X188000
X178000
X168000
X158000
T16
X295276Y301181
Y311181
T17
X15748Y128937
X35433
Y178150
X15748
T18
X174123Y47946
X196744
X216334Y59256
X227645Y78847
Y101468
X216334Y121059
X196744Y132369
X174123
X174715Y100875
X196151Y79440
X143221Y78847
Y101468
X154532Y121059
Y59256
T19
X24000Y24000
X327000Y21000
X24000Y325000
X332000Y336000
T20
X281791Y114961
X65256
M30
